<svg xmlns="http://www.w3.org/2000/svg" viewBox="0 0 288.62 298.04"><defs><style>.cls-1,.cls-2,.cls-3{fill:#16c191;}.cls-1,.cls-2,.cls-3,.cls-4{stroke:#fff;stroke-miterlimit:10;}.cls-1{stroke-width:0.5px;}.cls-2{stroke-width:0.3px;}.cls-3{stroke-width:0.6px;}.cls-4{fill:#2b2b2b;}</style></defs><title>Asset 2</title><g id="Layer_2" data-name="Layer 2"><g id="Layer_1-2" data-name="Layer 1"><polygon class="cls-1" points="219.15 130.48 218.99 130.78 145.57 173.77 215.25 45.49 219.15 130.48"/><path class="cls-1" d="M144.83,175.19l.16-.3,72-41.83a.59.59,0,0,1,.82.79L150.54,258.62a.59.59,0,0,1-1.11-.25Z"/><path class="cls-1" d="M148.68,261l-.16.3L90.09,297A4.5,4.5,0,0,1,83.76,291L144.2,176.36Z"/><path class="cls-1" d="M215.69,43.59h-.34L142.2.45,286.58.25a.59.59,0,0,1,.3,1.09Z"/><path class="cls-1" d="M64.18,43.74h-.34L2,7.28A3.6,3.6,0,0,1,3.85.58L137.21.39Z"/><polygon class="cls-2" points="139.6 0.45 139.94 0.45 213.09 43.59 66.56 43.79 139.6 0.45"/><path class="cls-3" d="M215.91,44.59l-.16.3,4,83.34a.59.59,0,0,0,1.11.25L288.25,2.4a.59.59,0,0,0-.82-.78Z"/><path class="cls-4" d="M148.57,58,26,286.75a7.37,7.37,0,0,0,6.64,10.79l25.4,0a7.51,7.51,0,0,0,6.61-3.92l123.3-228.8A7.37,7.37,0,0,0,181.31,54L155.18,54A7.51,7.51,0,0,0,148.57,58Z"/><path class="cls-4" d="M138.72,57.08l-94.17,172a5.89,5.89,0,0,0,5.15,8.72l20,0a5.89,5.89,0,0,0,5.18-3.05L169.4,62.72A5.89,5.89,0,0,0,164.23,54l-20.35,0A5.89,5.89,0,0,0,138.72,57.08Z"/><path class="cls-4" d="M128,57l-62,113.15a5.47,5.47,0,0,0,4.77,8.1l10.1.06a5.47,5.47,0,0,0,4.83-2.84l62.1-113.26a5.47,5.47,0,0,0-4.82-8.1l-10.26,0A5.47,5.47,0,0,0,128,57Z"/></g></g></svg>