<svg xmlns="http://www.w3.org/2000/svg" viewBox="0 0 56.4 53.06"><defs><style>.cls-1{fill:#08cd75;}</style></defs><title>Asset 2</title><g id="Layer_2" data-name="Layer 2"><g id="Layer_1-2" data-name="Layer 1"><path class="cls-1" d="M24,34.6,10.1,20.68a5.91,5.91,0,0,0-8.36,0h0a5.91,5.91,0,0,0,0,8.36L24,51.33a5.91,5.91,0,0,0,8.36,0L54.66,29a5.91,5.91,0,0,0,0-8.36h0a5.91,5.91,0,0,0-8.36,0L32.38,34.6A5.91,5.91,0,0,1,24,34.6Z"/><path class="cls-1" d="M24.83,12.59,13.64,1.39a4.76,4.76,0,0,0-6.73,0h0a4.76,4.76,0,0,0,0,6.73L24.83,26.05a4.76,4.76,0,0,0,6.73,0L49.49,8.12a4.76,4.76,0,0,0,0-6.73h0a4.76,4.76,0,0,0-6.73,0l-11.2,11.2A4.76,4.76,0,0,1,24.83,12.59Z"/></g></g></svg>