<svg xmlns="http://www.w3.org/2000/svg" viewBox="0 0 491.57 168.07"><defs><style>.cls-1{fill:#fff;}.cls-2,.cls-3,.cls-4,.cls-5,.cls-7{fill:#15c191;}.cls-2,.cls-3,.cls-4,.cls-5,.cls-6{stroke:#fff;}.cls-10,.cls-2,.cls-3,.cls-4,.cls-5,.cls-6,.cls-7{stroke-miterlimit:10;}.cls-2{stroke-width:0.5px;}.cls-4{stroke-width:0.7px;}.cls-5{stroke-width:1.1px;}.cls-10,.cls-6,.cls-9{fill:#2b2b2b;}.cls-7{font-size:34px;stroke:#15c191;letter-spacing:-0.06em;}.cls-10,.cls-7{font-family:Lato-Black, Lato;}.cls-8{letter-spacing:-0.07em;}.cls-9{font-size:21.34px;font-family:Lato-Regular, Lato;letter-spacing:0.97em;}.cls-10{font-size:12px;stroke:#2b2b2b;letter-spacing:0.2em;}</style></defs><title>Asset 7</title><g id="Layer_2" data-name="Layer 2"><g id="Layer_5" data-name="Layer 5"><path class="cls-1" d="M437.74,19.35c-26.9-9-54-8.22-107-6.33-12,.43-20.85.93-22,1C204.26,19.95,149.36-16.13,86.41,9,37.53,28.54,6.2,76,1.07,116.51c-1,7.83-4.51,35.64,10.5,47,16.12,12.2,42.76-2.78,75.5-14,49.67-17,90.37-17.51,131-18,81.37-1,95.39,27.56,181.5,21.5,54.55-3.84,70.39-16.79,78.5-27.5,17-22.41,18.63-59.43,1-82.5C469,29.78,455.71,25.35,437.74,19.35Z"/></g><g id="Layer_1-2" data-name="Layer 1"><polygon class="cls-2" points="165.66 67.34 165.63 67.41 148.05 77.74 164.7 46.97 165.66 67.34"/><path class="cls-3" d="M147.91,78l0-.07,17.26-10a.14.14,0,0,1,.2.19L149.28,98a.14.14,0,0,1-.27-.06Z"/><path class="cls-2" d="M148.83,98.45l0,.07-9.55,5.82a2.52,2.52,0,0,1-3.54-3.32l12-22.86Z"/><path class="cls-4" d="M165.07,46.52H165L147.46,36.18l34.6,0a.14.14,0,0,1,.07.26Z"/><path class="cls-4" d="M128.76,46.56h-.08L117.58,40a2,2,0,0,1,1-3.8l27.65,0Z"/><polygon class="cls-4" points="146.84 36.18 146.92 36.18 164.44 46.52 129.33 46.57 146.84 36.18"/><path class="cls-5" d="M164.88,46.72l0,.07,1,20a.14.14,0,0,0,.26.06l16.14-30.21a.14.14,0,0,0-.2-.19Z"/><path class="cls-6" d="M149,49.93,119.6,102.56a1.7,1.7,0,0,0,1.59,2.48h6.09a1.81,1.81,0,0,0,1.58-.9l29.56-52.63A1.7,1.7,0,0,0,156.83,49l-6.26,0A1.81,1.81,0,0,0,149,49.93Z"/><path class="cls-6" d="M146.63,49.75,124.06,91a1.41,1.41,0,0,0,1.24,2.09h4.79a1.41,1.41,0,0,0,1.24-.73L154,51.11A1.41,1.41,0,0,0,152.74,49h-4.88A1.41,1.41,0,0,0,146.63,49.75Z"/><path class="cls-6" d="M144.06,49.72,129.21,76.84a1.31,1.31,0,0,0,1.14,1.94h2.42a1.31,1.31,0,0,0,1.16-.68L148.82,51A1.31,1.31,0,0,0,147.66,49H145.2A1.31,1.31,0,0,0,144.06,49.72Z"/><text class="cls-7" transform="translate(183.55 79.19)">E<tspan class="cls-8" x="17.34" y="0">X</tspan><tspan x="39.17" y="0">CEPTIONAL</tspan></text><text class="cls-9" transform="translate(183.86 100.34) scale(0.98 1)">BUSTERS</text><text class="cls-10" transform="translate(185.71 49.63)">SEVEN</text></g></g></svg>