<?xml version="1.0" encoding="UTF-8" standalone="no"?>
<svg
   xmlns:dc="http://purl.org/dc/elements/1.1/"
   xmlns:cc="http://creativecommons.org/ns#"
   xmlns:rdf="http://www.w3.org/1999/02/22-rdf-syntax-ns#"
   xmlns:svg="http://www.w3.org/2000/svg"
   xmlns="http://www.w3.org/2000/svg"
   xmlns:sodipodi="http://sodipodi.sourceforge.net/DTD/sodipodi-0.dtd"
   xmlns:inkscape="http://www.inkscape.org/namespaces/inkscape"
   viewBox="0 0 277.86086 69.725578"
   version="1.1"
   id="svg40"
   sodipodi:docname="logo.svg"
   inkscape:version="0.92.3 (2405546, 2018-03-11)"
   width="277.86087"
   height="69.725578">
  <metadata
     id="metadata44">
    <rdf:RDF>
      <cc:Work
         rdf:about="">
        <dc:format>image/svg+xml</dc:format>
        <dc:type
           rdf:resource="http://purl.org/dc/dcmitype/StillImage" />
      </cc:Work>
    </rdf:RDF>
  </metadata>
  <sodipodi:namedview
     pagecolor="#ffffff"
     bordercolor="#666666"
     borderopacity="1"
     objecttolerance="10"
     gridtolerance="10"
     guidetolerance="10"
     inkscape:pageopacity="0"
     inkscape:pageshadow="2"
     inkscape:window-width="1524"
     inkscape:window-height="649"
     id="namedview42"
     showgrid="false"
     inkscape:zoom="1.1554657"
     inkscape:cx="173.21964"
     inkscape:cy="34.878735"
     inkscape:window-x="0"
     inkscape:window-y="0"
     inkscape:window-maximized="0"
     inkscape:current-layer="svg40" />
  <defs
     id="defs4">
    <style
       id="style2">.cls-1,.cls-2,.cls-3,.cls-4,.cls-6{fill:#15c191;}.cls-1,.cls-2,.cls-3,.cls-4,.cls-5{stroke:#fff;}.cls-1,.cls-2,.cls-3,.cls-4,.cls-5,.cls-6,.cls-9{stroke-miterlimit:10;}.cls-1{stroke-width:0.5px;}.cls-3{stroke-width:0.7px;}.cls-4{stroke-width:1.1px;}.cls-5,.cls-8,.cls-9{fill:#2b2b2b;}.cls-6{font-size:34px;stroke:#15c191;letter-spacing:-0.06em;}.cls-6,.cls-9{font-family:Lato-Black, Lato;}.cls-7{letter-spacing:-0.07em;}.cls-8{font-size:21.34px;font-family:Lato-Regular, Lato;letter-spacing:0.97em;}.cls-9{font-size:12px;stroke:#2b2b2b;letter-spacing:0.2em;}</style>
  </defs>
  <title
     id="title6">Asset 7</title>
  <g
     id="Layer_2"
     data-name="Layer 2"
     transform="translate(0.12926174,-0.02815349)">
    <g
       id="Layer_1-2"
       data-name="Layer 1">
      <path
         style="fill:#15c191;stroke:#ffffff;stroke-width:0.5px;stroke-miterlimit:10"
         d="M 48.48,11.19 49.44,31.55 49.4,31.62 31.83,41.95 Z"
         id="polygon8"
         inkscape:connector-curvature="0" />
      <path
         class="cls-2"
         d="M 31.69,42.2 V 42.13 L 49,32.1 a 0.14,0.14 0 0 1 0.2,0.19 l -16.14,29.9 a 0.14,0.14 0 0 1 -0.27,-0.06 z"
         id="path10"
         inkscape:connector-curvature="0"
         style="fill:#15c191;stroke:#ffffff;stroke-miterlimit:10" />
      <path
         class="cls-1"
         d="m 32.61,62.66 v 0.07 L 23,68.56 a 2.52,2.52 0 0 1 -3.54,-3.32 l 12,-22.86 z"
         id="path12"
         inkscape:connector-curvature="0"
         style="fill:#15c191;stroke:#ffffff;stroke-width:0.5px;stroke-miterlimit:10" />
      <path
         class="cls-3"
         d="M 48.85,10.74 H 48.77 L 31.24,0.4 h 34.6 a 0.14,0.14 0 0 1 0.07,0.26 z"
         id="path14"
         inkscape:connector-curvature="0"
         style="fill:#15c191;stroke:#ffffff;stroke-width:0.69999999px;stroke-miterlimit:10" />
      <path
         class="cls-3"
         d="M 12.54,10.77 H 12.46 L 1.36,4.22 a 2,2 0 0 1 1,-3.8 L 30,0.38 Z"
         id="path16"
         inkscape:connector-curvature="0"
         style="fill:#15c191;stroke:#ffffff;stroke-width:0.69999999px;stroke-miterlimit:10" />
      <path
         style="fill:#15c191;stroke:#ffffff;stroke-width:0.69999999px;stroke-miterlimit:10"
         d="M 13.11,10.78 30.61,0.4 h 0.09 l 17.53,10.33 z"
         id="polygon18"
         inkscape:connector-curvature="0" />
      <path
         class="cls-4"
         d="m 48.66,10.94 v 0.07 l 1,20 a 0.14,0.14 0 0 0 0.26,0.06 L 66,0.83 A 0.14,0.14 0 0 0 65.8,0.64 Z"
         id="path20"
         inkscape:connector-curvature="0"
         style="fill:#15c191;stroke:#ffffff;stroke-width:1.10000002px;stroke-miterlimit:10" />
      <path
         class="cls-5"
         d="M 32.76,14.14 3.38,66.77 A 1.7,1.7 0 0 0 5,69.25 h 6.09 a 1.81,1.81 0 0 0 1.58,-0.9 L 42.2,15.71 a 1.7,1.7 0 0 0 -1.59,-2.49 h -6.26 a 1.81,1.81 0 0 0 -1.59,0.92 z"
         id="path22"
         inkscape:connector-curvature="0"
         style="fill:#2b2b2b;stroke:#ffffff;stroke-miterlimit:10" />
      <path
         class="cls-5"
         d="M 30.4,14 7.84,55.18 a 1.41,1.41 0 0 0 1.24,2.09 h 4.79 a 1.41,1.41 0 0 0 1.24,-0.73 L 37.76,15.32 A 1.41,1.41 0 0 0 36.52,13.23 H 31.64 A 1.41,1.41 0 0 0 30.4,14 Z"
         id="path24"
         inkscape:connector-curvature="0"
         style="fill:#2b2b2b;stroke:#ffffff;stroke-miterlimit:10" />
      <path
         class="cls-5"
         d="M 27.84,13.94 13,41.05 A 1.31,1.31 0 0 0 14.14,43 h 2.42 a 1.31,1.31 0 0 0 1.16,-0.68 L 32.6,15.19 A 1.31,1.31 0 0 0 31.44,13.25 H 29 a 1.31,1.31 0 0 0 -1.16,0.69 z"
         id="path26"
         inkscape:connector-curvature="0"
         style="fill:#2b2b2b;stroke:#ffffff;stroke-miterlimit:10" />
      <g
         aria-label="EXCEPTIONAL"
         transform="translate(67.32,43.4)"
         style="font-size:34px;font-family:Lato-Black, Lato;letter-spacing:-0.06em;fill:#15c191;stroke:#15c191;stroke-miterlimit:10"
         id="text32">
        <path
           d="m 17.969,-24.361 v 2.686 H 6.273 v 8.092 h 9.469 v 2.584 H 6.273 v 8.313 H 17.969 V 0 H 2.958 v -24.361 z"
           style="font-size:34px;font-family:Lato-Black, Lato;letter-spacing:-0.06em;fill:#15c191;stroke:#15c191;stroke-miterlimit:10"
           id="path4556"
           inkscape:connector-curvature="0" />
        <path
           d="m 25.959,-12.512 -8.041,-11.849 h 3.281 q 0.357,0 0.527,0.119 0.17,0.119 0.306,0.34 l 6.358,9.758 q 0.119,-0.357 0.357,-0.782 l 6.001,-8.908 q 0.153,-0.238 0.323,-0.374 0.187,-0.153 0.442,-0.153 h 3.145 L 30.583,-12.665 38.93,0 h -3.264 q -0.374,0 -0.595,-0.187 -0.204,-0.204 -0.34,-0.442 l -6.528,-10.217 q -0.119,0.357 -0.306,0.68 l -6.358,9.537 Q 21.386,-0.391 21.182,-0.187 20.995,0 20.638,0 h -3.06 z"
           style="letter-spacing:-0.07em"
           id="path4558"
           inkscape:connector-curvature="0" />
        <path
           d="m 59.297998,-5.032 q 0.272,0 0.493,0.221 l 1.292,1.411 q -1.496,1.734 -3.638,2.703 -2.125,0.969 -5.134,0.969 -2.635,0 -4.777,-0.901 -2.142,-0.918 -3.655,-2.55 -1.513,-1.649 -2.346,-3.944 -0.833,-2.295 -0.833,-5.049 0,-2.754 0.884,-5.049 0.901,-2.295 2.516,-3.944 1.615,-1.649 3.859,-2.55 2.261,-0.918 4.981,-0.918 2.686,0 4.624,0.833 1.955,0.833 3.468,2.261 l -1.071,1.513 q -0.119,0.17 -0.272,0.289 -0.153,0.102 -0.442,0.102 -0.221,0 -0.476,-0.153 -0.238,-0.17 -0.578,-0.408 -0.34,-0.238 -0.799,-0.51 -0.459,-0.272 -1.088,-0.51 -0.629,-0.238 -1.462,-0.391 -0.833,-0.17 -1.921,-0.17 -1.955,0 -3.587,0.68 -1.615,0.663 -2.788,1.904 -1.173,1.241 -1.836,3.026 -0.646,1.785 -0.646,3.995 0,2.278 0.646,4.063 0.663,1.785 1.785,3.026 1.139,1.224 2.686,1.87 1.547,0.646 3.332,0.646 1.088,0 1.955,-0.119 0.867,-0.136 1.598,-0.408 0.748,-0.272 1.377,-0.68 0.646,-0.425 1.292,-1.003 0.289,-0.255 0.561,-0.255 z"
           id="path4560"
           inkscape:connector-curvature="0" />
        <path
           d="m 78.407591,-24.361 v 2.686 h -11.696 v 8.092 h 9.469 v 2.584 h -9.469 v 8.313 h 11.696 V 0 h -15.011 v -24.361 z"
           id="path4562"
           inkscape:connector-curvature="0" />
        <path
           d="M 84.700246,-9.112 V 0 h -3.281 v -24.361 h 7.191 q 2.312,0 4.012,0.544 1.717,0.527 2.839,1.513 1.122,0.986 1.666,2.38 0.561,1.394 0.561,3.111 0,1.7 -0.595,3.111 -0.595,1.411 -1.751,2.431 -1.139,1.02 -2.839,1.598 -1.7,0.561 -3.893,0.561 z m 0,-2.618 h 3.91 q 1.411,0 2.482,-0.374 1.088,-0.374 1.819,-1.037 0.731,-0.68 1.105,-1.615 0.374,-0.935 0.374,-2.057 0,-2.329 -1.445,-3.638 -1.428,-1.309 -4.335,-1.309 h -3.91 z"
           id="path4564"
           inkscape:connector-curvature="0" />
        <path
           d="m 116.41641,-24.361 v 2.771 h -7.871 V 0 h -3.298 v -21.59 h -7.905005 v -2.771 z"
           id="path4566"
           inkscape:connector-curvature="0" />
        <path
           d="m 121.74909,0 h -3.298 v -24.361 h 3.298 z"
           id="path4568"
           inkscape:connector-curvature="0" />
        <path
           d="m 148.85188,-12.172 q 0,2.737 -0.867,5.032 -0.867,2.278 -2.448,3.927 -1.581,1.649 -3.808,2.567 -2.21,0.901 -4.896,0.901 -2.686,0 -4.896,-0.901 -2.21,-0.918 -3.791,-2.567 -1.581,-1.649 -2.448,-3.927 -0.867,-2.295 -0.867,-5.032 0,-2.737 0.867,-5.015 0.867,-2.295 2.448,-3.944 1.581,-1.666 3.791,-2.584 2.21,-0.918 4.896,-0.918 2.686,0 4.896,0.918 2.227,0.918 3.808,2.584 1.581,1.649 2.448,3.944 0.867,2.278 0.867,5.015 z m -3.383,0 q 0,-2.244 -0.612,-4.029 -0.612,-1.785 -1.734,-3.009 -1.122,-1.241 -2.72,-1.904 -1.598,-0.663 -3.57,-0.663 -1.955,0 -3.553,0.663 -1.598,0.663 -2.737,1.904 -1.122,1.224 -1.734,3.009 -0.612,1.785 -0.612,4.029 0,2.244 0.612,4.029 0.612,1.768 1.734,3.009 1.139,1.224 2.737,1.887 1.598,0.646 3.553,0.646 1.972,0 3.57,-0.646 1.598,-0.663 2.72,-1.887 1.122,-1.241 1.734,-3.009 0.612,-1.785 0.612,-4.029 z"
           id="path4570"
           inkscape:connector-curvature="0" />
        <path
           d="m 153.04503,-24.361 q 0.442,0 0.646,0.119 0.221,0.102 0.493,0.442 l 14.11,18.36 q -0.051,-0.442 -0.068,-0.85 -0.017,-0.425 -0.017,-0.816 v -17.255 h 2.89 V 0 h -1.666 q -0.391,0 -0.663,-0.136 -0.255,-0.136 -0.51,-0.459 l -14.093,-18.343 q 0.034,0.425 0.051,0.833 0.017,0.408 0.017,0.748 V 0 h -2.89 v -24.361 z"
           id="path4572"
           inkscape:connector-curvature="0" />
        <path
           d="m 195.04725,0 h -2.55 q -0.442,0 -0.714,-0.221 -0.272,-0.221 -0.408,-0.561 l -2.278,-5.882 h -10.931 l -2.278,5.882 q -0.119,0.306 -0.408,0.544 -0.289,0.238 -0.714,0.238 h -2.55 l 9.741,-24.361 h 3.349 z m -15.963,-9.044 h 9.095 l -3.825,-9.911 q -0.374,-0.918 -0.731,-2.295 -0.187,0.697 -0.374,1.292 -0.17,0.578 -0.34,1.02 z"
           id="path4574"
           inkscape:connector-curvature="0" />
        <path
           d="m 199.37162,-2.771 h 10.54 V 0 h -13.838 v -24.361 h 3.298 z"
           id="path4576"
           inkscape:connector-curvature="0" />
      </g>
      <g
         aria-label="BUSTERS"
         transform="matrix(0.98,0,0,1,67.64,64.55)"
         style="font-size:21.34000015px;font-family:Lato-Regular, Lato;letter-spacing:0.97000003em;fill:#2b2b2b"
         id="text34">
        <path
           d="m 1.85658,0 v -15.29011 h 4.87619 q 1.4084401,0 2.4220901,0.27742 1.0243199,0.27742 1.6751899,0.78958 0.66154,0.51216 0.97097,1.25906 0.3201,0.73623 0.3201,1.66452 0,0.56551 -0.18139,1.08834 -0.17072,0.5228299 -0.5335,0.9709699 -0.35211,0.44814 -0.89628,0.80025 -0.5334999,0.35211 -1.2590599,0.57618 1.6751899,0.33077 2.5287899,1.2057101 0.8536,0.87494 0.8536,2.30472 0,0.97097 -0.36278,1.77122 -0.35211,0.80025 -1.04566,1.37643 -0.68288,0.57618 -1.6858599,0.89628 Q 8.5466701,0 7.2662701,0 Z m 2.06998,-6.96751 v 5.32433 h 3.3077001 q 0.88561,0 1.51514,-0.20273 0.6402,-0.20273 1.04566,-0.56551 0.4161299,-0.37345 0.6081899,-0.87494 0.19206,-0.51216 0.19206,-1.12035 0,-1.18437 -0.8429299,-1.86725 -0.83226,-0.69355 -2.52879,-0.69355 z m 0,-1.4724601 h 2.73152 q 0.8749401,0 1.5151401,-0.19206 0.6402,-0.19206 1.05633,-0.5335 0.4268,-0.34144 0.62953,-0.82159 0.2027299,-0.4908199 0.2027299,-1.0669999 0,-1.34442 -0.8109199,-1.97395 Q 8.4399701,-13.6576 6.73277,-13.6576 H 3.92656 Z"
           style="font-size:21.34000015px;font-family:Lato-Regular, Lato;letter-spacing:0.97000003em;fill:#2b2b2b"
           id="path4579"
           inkscape:connector-curvature="0" />
        <path
           d="m 42.295547,-1.64318 q 0.94963,0 1.69653,-0.3201 0.7469,-0.3201 1.25906,-0.89628 0.52283,-0.57618 0.78958,-1.37643 0.27742,-0.80025 0.27742,-1.76055 v -9.29357 h 2.05931 v 9.29357 q 0,1.32308 -0.4268,2.4541 -0.41613,1.13102 -1.20571,1.96328 -0.77891,0.82158999 -1.90993,1.29107 -1.13102,0.46948 -2.53946,0.46948 -1.40844,0 -2.53946,-0.46948 -1.13102,-0.46948001 -1.9206,-1.29107 -0.78958,-0.83226 -1.21638,-1.96328 -0.41613,-1.13102 -0.41613,-2.4541 v -9.29357 h 2.05931 v 9.2829 q 0,0.9603 0.26675,1.76055 0.27742,0.80025 0.78958,1.37643 0.52283,0.57618 1.26973,0.90695 0.75757,0.3201 1.7072,0.3201 z"
           style="font-size:21.34000015px;font-family:Lato-Regular, Lato;letter-spacing:0.97000003em;fill:#2b2b2b"
           id="path4581"
           inkscape:connector-curvature="0" />
        <path
           d="m 80.472143,-12.90003 q -0.09603,0.16005 -0.20273,0.24541 -0.1067,0.07469 -0.27742,0.07469 -0.18139,0 -0.4268,-0.18139 -0.23474,-0.18139 -0.60819,-0.39479 -0.36278,-0.22407 -0.88561,-0.40546 -0.51216,-0.18139 -1.24839,-0.18139 -0.69355,0 -1.22705,0.19206 -0.5335,0.18139 -0.89628,0.50149 -0.35211,0.3201 -0.5335,0.75757 -0.18139,0.4268 -0.18139,0.92829 0,0.6402 0.30943,1.067 0.3201,0.4161299 0.83226,0.7148899 0.52283,0.29876 1.1737,0.52283 0.66154,0.2134 1.34442,0.44814 0.69355,0.23474 1.34442,0.5335 0.66154,0.28809 1.1737,0.73623 0.52283,0.4481401 0.83226,1.0990101 0.3201,0.65087 0.3201,1.6005 0,1.00298 -0.34144,1.88859 -0.34144,0.87494 -1.00298,1.52581 -0.65087,0.65087 -1.61117,1.02432 -0.94963,0.37345 -2.16601,0.37345 -1.48313,0 -2.71018,-0.5335 -1.21638,-0.54417001 -2.08065,-1.46179 l 0.59752,-0.98164 q 0.08536,-0.11737 0.20273,-0.19206 0.12804,-0.08536 0.27742,-0.08536 0.22407,0 0.51216,0.24541 0.28809,0.23474 0.71489,0.52283 0.43747,0.28809 1.04566,0.5335 0.61886,0.23474 1.50447,0.23474 0.73623,0 1.31241,-0.20273 0.57618,-0.20273 0.97097,-0.56551 0.40546,-0.37345 0.61886,-0.88561 0.2134,-0.51216 0.2134,-1.14169 0,-0.69355 -0.3201,-1.13102 -0.30943,-0.44814 -0.82159,-0.7469 -0.51216,-0.29876 -1.1737,-0.50149 -0.65087,-0.2134 -1.34442,-0.4268001 -0.68288,-0.22407 -1.34442,-0.51216 -0.65087,-0.28809 -1.16303,-0.7469 -0.51216,-0.45881 -0.83226,-1.14169 -0.30943,-0.6935499 -0.30943,-1.7071999 0,-0.81092 0.30943,-1.56849 0.3201,-0.75757 0.91762,-1.34442 0.59752,-0.58685 1.47246,-0.93896 0.88561,-0.35211 2.0273,-0.35211 1.2804,0 2.33673,0.40546 1.05633,0.40546 1.84591,1.1737 z"
           style="font-size:21.34000015px;font-family:Lato-Regular, Lato;letter-spacing:0.97000003em;fill:#2b2b2b"
           id="path4583"
           inkscape:connector-curvature="0" />
        <path
           d="m 115.04928,-15.29011 v 1.73921 h -4.94021 V 0 h -2.06998 v -13.5509 h -4.96155 v -1.73921 z"
           style="font-size:21.34000015px;font-family:Lato-Regular, Lato;letter-spacing:0.97000003em;fill:#2b2b2b"
           id="path4585"
           inkscape:connector-curvature="0" />
        <path
           d="m 147.34403,-15.29011 v 1.68586 h -7.34096 v 5.0789199 h 5.94319 V -6.90349 h -5.94319 v 5.21763 h 7.34096 V 0 h -9.42161 v -15.29011 z"
           style="font-size:21.34000015px;font-family:Lato-Regular, Lato;letter-spacing:0.97000003em;fill:#2b2b2b"
           id="path4587"
           inkscape:connector-curvature="0" />
        <path
           d="M 173.27381,-6.38066 V 0 h -2.05931 v -15.29011 h 4.32135 q 1.45112,0 2.50745,0.29876 1.05633,0.28809 1.73921,0.84293 0.69355,0.55484 1.02432,1.34442 0.33077,0.77891 0.33077,1.74988 0,0.81092 -0.25608,1.5151399 -0.25608,0.70422 -0.7469,1.26973 -0.48015,0.55484 -1.18437,0.94963 -0.69355,0.3947901 -1.57916,0.5975201 0.38412,0.22407 0.68288,0.65087 L 182.51403,0 h -1.83524 q -0.56551,0 -0.83226,-0.43747 l -3.96924,-5.46304 q -0.18139,-0.25608 -0.39479,-0.36278 -0.2134,-0.11737 -0.6402,-0.11737 z m 0,-1.5044701 h 2.16601 q 0.90695,0 1.58983,-0.2134 0.69355,-0.22407 1.15236,-0.61886 0.46948,-0.40546 0.70422,-0.9603 0.23474,-0.5548399 0.23474,-1.2270499 0,-1.36576 -0.90695,-2.05931 -0.89628,-0.69355 -2.67817,-0.69355 h -2.26204 z"
           style="font-size:21.34000015px;font-family:Lato-Regular, Lato;letter-spacing:0.97000003em;fill:#2b2b2b"
           id="path4589"
           inkscape:connector-curvature="0" />
        <path
           d="m 213.28696,-12.90003 q -0.096,0.16005 -0.20273,0.24541 -0.1067,0.07469 -0.27742,0.07469 -0.18139,0 -0.4268,-0.18139 -0.23474,-0.18139 -0.60819,-0.39479 -0.36278,-0.22407 -0.88561,-0.40546 -0.51216,-0.18139 -1.24839,-0.18139 -0.69355,0 -1.22705,0.19206 -0.5335,0.18139 -0.89628,0.50149 -0.35211,0.3201 -0.5335,0.75757 -0.18139,0.4268 -0.18139,0.92829 0,0.6402 0.30943,1.067 0.3201,0.4161299 0.83226,0.7148899 0.52283,0.29876 1.1737,0.52283 0.66154,0.2134 1.34442,0.44814 0.69355,0.23474 1.34442,0.5335 0.66154,0.28809 1.1737,0.73623 0.52283,0.4481401 0.83226,1.0990101 0.3201,0.65087 0.3201,1.6005 0,1.00298 -0.34144,1.88859 -0.34144,0.87494 -1.00298,1.52581 -0.65087,0.65087 -1.61117,1.02432 -0.94963,0.37345 -2.16601,0.37345 -1.48313,0 -2.71018,-0.5335 -1.21638,-0.54417001 -2.08065,-1.46179 l 0.59752,-0.98164 q 0.0854,-0.11737 0.20273,-0.19206 0.12804,-0.08536 0.27742,-0.08536 0.22407,0 0.51216,0.24541 0.28809,0.23474 0.71489,0.52283 0.43747,0.28809 1.04566,0.5335 0.61886,0.23474 1.50447,0.23474 0.73623,0 1.31241,-0.20273 0.57618,-0.20273 0.97097,-0.56551 0.40546,-0.37345 0.61886,-0.88561 0.2134,-0.51216 0.2134,-1.14169 0,-0.69355 -0.3201,-1.13102 -0.30943,-0.44814 -0.82159,-0.7469 -0.51216,-0.29876 -1.1737,-0.50149 -0.65087,-0.2134 -1.34442,-0.4268001 -0.68288,-0.22407 -1.34442,-0.51216 -0.65087,-0.28809 -1.16303,-0.7469 -0.51216,-0.45881 -0.83226,-1.14169 Q 204.879,-10.2432 204.879,-11.25685 q 0,-0.81092 0.30943,-1.56849 0.3201,-0.75757 0.91762,-1.34442 0.59752,-0.58685 1.47246,-0.93896 0.88561,-0.35211 2.0273,-0.35211 1.2804,0 2.33673,0.40546 1.05633,0.40546 1.84591,1.1737 z"
           style="font-size:21.34000015px;font-family:Lato-Regular, Lato;letter-spacing:0.97000003em;fill:#2b2b2b"
           id="path4591"
           inkscape:connector-curvature="0" />
      </g>
      <g
         aria-label="SEVEN"
         transform="translate(69.49,13.84)"
         style="font-size:12px;font-family:Lato-Black, Lato;letter-spacing:0.2em;fill:#2b2b2b;stroke:#2b2b2b;stroke-miterlimit:10"
         id="text36">
        <path
           d="m 5.448,-7.254 q -0.054,0.09 -0.114,0.138 -0.06,0.042 -0.156,0.042 -0.102,0 -0.24,-0.102 Q 4.806,-7.278 4.596,-7.398 4.392,-7.524 4.098,-7.626 3.81,-7.728 3.396,-7.728 q -0.39,0 -0.69,0.108 -0.3,0.102 -0.504,0.282 -0.198,0.18 -0.3,0.426 -0.102,0.24 -0.102,0.522 0,0.36 0.174,0.6 0.18,0.234 0.468,0.402 0.294,0.168 0.66,0.294 0.372,0.12 0.756,0.252 0.39,0.132 0.756,0.3 0.372,0.162 0.66,0.414 0.294,0.252 0.468,0.618 0.18,0.366 0.18,0.9 0,0.564 -0.192,1.062 -0.192,0.492 -0.564,0.858 -0.366,0.366 -0.906,0.576 -0.534,0.21 -1.218,0.21 -0.834,0 -1.524,-0.3 -0.684,-0.306 -1.17,-0.822 l 0.336,-0.552 q 0.048,-0.066 0.114,-0.108 0.072,-0.048 0.156,-0.048 0.126,0 0.288,0.138 0.162,0.132 0.402,0.294 0.246,0.162 0.588,0.3 0.348,0.132 0.846,0.132 0.414,0 0.738,-0.114 Q 4.14,-1.098 4.362,-1.302 4.59,-1.512 4.71,-1.8 4.83,-2.088 4.83,-2.442 4.83,-2.832 4.65,-3.078 4.476,-3.33 4.188,-3.498 3.9,-3.666 3.528,-3.78 3.162,-3.9 2.772,-4.02 2.388,-4.146 2.016,-4.308 1.65,-4.47 1.362,-4.728 1.074,-4.986 0.894,-5.37 0.72,-5.76 0.72,-6.33 q 0,-0.456 0.174,-0.882 0.18,-0.426 0.516,-0.756 0.336,-0.33 0.828,-0.528 0.498,-0.198 1.14,-0.198 0.72,0 1.314,0.228 0.594,0.228 1.038,0.66 z"
           style="font-size:12px;font-family:Lato-Black, Lato;letter-spacing:0.2em;fill:#2b2b2b;stroke:#2b2b2b;stroke-miterlimit:10"
           id="path4594"
           inkscape:connector-curvature="0" />
        <path
           d="m 15.093562,-8.598 v 0.948 h -4.128 v 2.856 h 3.342 v 0.912 h -3.342 v 2.934 h 4.128 V 0 H 9.7955621 v -8.598 z"
           style="font-size:12px;font-family:Lato-Black, Lato;letter-spacing:0.2em;fill:#2b2b2b;stroke:#2b2b2b;stroke-miterlimit:10"
           id="path4596"
           inkscape:connector-curvature="0" />
        <path
           d="m 18.160499,-8.598 h 0.93 q 0.156,0 0.252,0.078 0.096,0.078 0.144,0.198 l 2.43,6.066 q 0.084,0.204 0.15,0.444 0.072,0.24 0.138,0.498 0.054,-0.258 0.114,-0.498 0.066,-0.24 0.15,-0.444 l 2.418,-6.066 q 0.042,-0.102 0.144,-0.186 0.102,-0.09 0.252,-0.09 h 0.936 L 22.714499,0 h -1.05 z"
           style="font-size:12px;font-family:Lato-Black, Lato;letter-spacing:0.2em;fill:#2b2b2b;stroke:#2b2b2b;stroke-miterlimit:10"
           id="path4598"
           inkscape:connector-curvature="0" />
        <path
           d="m 35.010751,-8.598 v 0.948 h -4.128 v 2.856 h 3.342 v 0.912 h -3.342 v 2.934 h 4.128 V 0 h -5.298 v -8.598 z"
           style="font-size:12px;font-family:Lato-Black, Lato;letter-spacing:0.2em;fill:#2b2b2b;stroke:#2b2b2b;stroke-miterlimit:10"
           id="path4600"
           inkscape:connector-curvature="0" />
        <path
           d="m 39.673686,-8.598 q 0.156,0 0.228,0.042 0.078,0.036 0.174,0.156 l 4.98,6.48 q -0.018,-0.156 -0.024,-0.3 -0.006,-0.15 -0.006,-0.288 v -6.09 h 1.02 V 0 h -0.588 q -0.138,0 -0.234,-0.048 -0.09,-0.048 -0.18,-0.162 l -4.974,-6.474 q 0.012,0.15 0.018,0.294 0.006,0.144 0.006,0.264 V 0 h -1.02 v -8.598 z"
           style="font-size:12px;font-family:Lato-Black, Lato;letter-spacing:0.2em;fill:#2b2b2b;stroke:#2b2b2b;stroke-miterlimit:10"
           id="path4602"
           inkscape:connector-curvature="0" />
      </g>
    </g>
  </g>
</svg>
