<svg xmlns="http://www.w3.org/2000/svg" viewBox="0 0 296.85 69.75"><defs><style>.cls-1,.cls-2,.cls-3,.cls-4,.cls-6{fill:#15c191;}.cls-1,.cls-2,.cls-3,.cls-4,.cls-5{stroke:#fff;}.cls-1,.cls-2,.cls-3,.cls-4,.cls-5,.cls-6,.cls-9{stroke-miterlimit:10;}.cls-1{stroke-width:0.5px;}.cls-3{stroke-width:0.7px;}.cls-4{stroke-width:1.1px;}.cls-5,.cls-8,.cls-9{fill:#2b2b2b;}.cls-6{font-size:34px;stroke:#15c191;letter-spacing:-0.06em;}.cls-6,.cls-9{font-family:Lato-Black, Lato;}.cls-7{letter-spacing:-0.07em;}.cls-8{font-size:21.34px;font-family:Lato-Regular, Lato;letter-spacing:0.97em;}.cls-9{font-size:12px;stroke:#2b2b2b;letter-spacing:0.2em;}</style></defs><title>Asset 7</title><g id="Layer_2" data-name="Layer 2"><g id="Layer_1-2" data-name="Layer 1"><polygon class="cls-1" points="49.44 31.55 49.4 31.62 31.83 41.95 48.48 11.19 49.44 31.55"/><path class="cls-2" d="M31.69,42.2l0-.07L49,32.1a.14.14,0,0,1,.2.19L33.06,62.19a.14.14,0,0,1-.27-.06Z"/><path class="cls-1" d="M32.61,62.66l0,.07L23,68.56a2.52,2.52,0,0,1-3.54-3.32l12-22.86Z"/><path class="cls-3" d="M48.85,10.74h-.08L31.24.4l34.6,0a.14.14,0,0,1,.07.26Z"/><path class="cls-3" d="M12.54,10.77h-.08L1.36,4.22a2,2,0,0,1,1-3.8L30,.38Z"/><polygon class="cls-3" points="30.61 0.4 30.7 0.4 48.23 10.73 13.11 10.78 30.61 0.4"/><path class="cls-4" d="M48.66,10.94l0,.07,1,20a.14.14,0,0,0,.26.06L66,.83a.14.14,0,0,0-.2-.19Z"/><path class="cls-5" d="M32.76,14.14,3.38,66.77A1.7,1.7,0,0,0,5,69.25h6.09a1.81,1.81,0,0,0,1.58-.9L42.2,15.71a1.7,1.7,0,0,0-1.59-2.49l-6.26,0A1.81,1.81,0,0,0,32.76,14.14Z"/><path class="cls-5" d="M30.4,14,7.84,55.18a1.41,1.41,0,0,0,1.24,2.09h4.79a1.41,1.41,0,0,0,1.24-.73L37.76,15.32a1.41,1.41,0,0,0-1.24-2.09H31.64A1.41,1.41,0,0,0,30.4,14Z"/><path class="cls-5" d="M27.84,13.94,13,41.05A1.31,1.31,0,0,0,14.14,43h2.42a1.31,1.31,0,0,0,1.16-.68L32.6,15.19a1.31,1.31,0,0,0-1.16-1.94H29A1.31,1.31,0,0,0,27.84,13.94Z"/><text class="cls-6" transform="translate(67.32 43.4)">E<tspan class="cls-7" x="17.34" y="0">X</tspan><tspan x="39.17" y="0">CEPTIONAL</tspan></text><text class="cls-8" transform="translate(67.64 64.55) scale(0.98 1)">BUSTERS</text><text class="cls-9" transform="translate(69.49 13.84)">SEVEN</text></g></g></svg>